Coordinates
datacolumns 11
datarows 72
range 1.25 1.96
inDegrees=yes
Units are S.I. units (second, meters, Newtons, ...)
If the header above contains a line with 'inDegrees', this indicates whether rotational values are in degrees (yes) or radians (no).
endheader
time	pelvis_tilt	pelvis_tx	pelvis_ty	hip_flexion_l	hip_flexion_r	knee_angle_l	knee_angle_r	ankle_angle_l	ankle_angle_r	lumbar
1.25	-25.60083679	0.16920177	0.85503829	65.48607028	65.48607028	-50.18252399	-50.18252399	9.07431346	9.07431346	-27.93682757
1.26	-25.64669404	0.17100558	0.85744454	65.05741258	65.05741258	-49.59919317	-49.59919317	9.04988885	9.04988885	-27.39441769
1.27	-25.61768382	0.17289681	0.86006133	64.52399716	64.52399716	-48.98383071	-48.98383071	8.97273166	8.97273166	-26.9463346
1.28	-25.50075346	0.17486189	0.86288581	63.88780328	63.88780328	-48.36175572	-48.36175572	8.84022091	8.84022091	-26.60508563
1.29	-25.36735095	0.17688484	0.86573367	63.22555422	63.22555422	-47.73191727	-47.73191727	8.70781181	8.70781181	-26.27129154
1.3	-25.22772569	0.17894426	0.8685903	62.55132533	62.55132533	-47.09617462	-47.09617462	8.58689951	8.58689951	-25.93302653
1.31	-24.85823329	0.18122353	0.87196181	61.60655679	61.60655679	-46.43395261	-46.43395261	8.32995985	8.32995985	-25.88379519
1.32	-24.88076286	0.18320562	0.87439344	61.12528012	61.12528012	-45.82911231	-45.82911231	8.33416492	8.33416492	-25.30741484
1.33	-24.5435661	0.18553095	0.8776521	60.20667671	60.20667671	-45.16175126	-45.16175126	8.16620816	8.16620816	-25.19206244
1.34	-24.56352347	0.18757485	0.8800589	59.71896075	59.71896075	-44.55148147	-44.55148147	8.17467021	8.17467021	-24.59906487
1.35	-24.18706362	0.18999591	0.88337674	58.74942545	58.74942545	-43.87651607	-43.87651607	8.00457113	8.00457113	-24.51857464
1.36	-24.19511509	0.19211464	0.88574816	58.24992144	58.24992144	-43.27656603	-43.27656603	8.01074613	8.01074613	-23.91710748
1.37	-23.79404987	0.19461441	0.8890542	57.25001243	57.25001243	-42.5897469	-42.5897469	7.8307197	7.8307197	-23.8424389
1.38	-23.75815022	0.19683715	0.89147586	56.69093333	56.69093333	-41.96785622	-41.96785622	7.81610356	7.81610356	-23.27996075
1.39	-23.39642017	0.19936364	0.89457776	55.7554066	55.7554066	-41.3226034	-41.3226034	7.64492022	7.64492022	-23.138393
1.4	-23.36659011	0.20165617	0.89688066	55.21328726	55.21328726	-40.72310314	-40.72310314	7.63479118	7.63479118	-22.55163453
1.41	-22.9637335	0.20428886	0.89997273	54.23018986	54.23018986	-40.07249905	-40.07249905	7.44586354	7.44586354	-22.44090447
1.42	-22.73321647	0.2068118	0.90261839	53.45606895	53.45606895	-39.45740691	-39.45740691	7.34031479	7.34031479	-22.09731689
1.43	-22.48865626	0.20937669	0.90523695	52.6690677	52.6690677	-38.84350686	-38.84350686	7.2276833	7.2276833	-21.76546934
1.44	-22.45902506	0.21179123	0.90729892	52.15395145	52.15395145	-38.29217576	-38.29217576	7.2208782	7.2208782	-21.14921716
1.45	-21.96969648	0.2145787	0.91037194	51.07195516	51.07195516	-37.63106061	-37.63106061	6.98217171	6.98217171	-21.12893935
1.46	-21.89939758	0.21708611	0.91242175	50.50842003	50.50842003	-37.07161906	-37.07161906	6.95445702	6.95445702	-20.5503484
1.47	-21.42066851	0.21990275	0.91534525	49.45395919	49.45395919	-36.43794348	-36.43794348	6.71757786	6.71757786	-20.50135219
1.48	-21.35626346	0.22240659	0.91727322	48.91170445	48.91170445	-35.90013229	-35.90013229	6.69526267	6.69526267	-19.91201177
1.49	-20.85139091	0.2252583	0.92016563	47.82527465	47.82527465	-35.26512454	-35.26512454	6.45702873	6.45702873	-19.88937862
1.5	-20.79193485	0.22776647	0.92198722	47.29961618	47.29961618	-34.74334117	-34.74334117	6.44545908	6.44545908	-19.29171545
1.51	-20.28694349	0.23061948	0.92479914	46.21906851	46.21906851	-34.12064768	-34.12064768	6.23743219	6.23743219	-19.26928639
1.52	-20.00757161	0.23330761	0.92704284	45.42136426	45.42136426	-33.55351534	-33.55351534	6.14673903	6.14673903	-18.95305292
1.53	-19.72629626	0.23601535	0.92925946	44.62073028	44.62073028	-32.98514791	-32.98514791	6.06512957	6.06512957	-18.63531394
1.54	-19.45580901	0.2387068	0.93140549	43.83730747	43.83730747	-32.43036286	-32.43036286	5.99499298	5.99499298	-18.30656709
1.55	-19.18469015	0.24140423	0.93351132	43.05727281	43.05727281	-31.8802386	-31.8802386	5.93035753	5.93035753	-17.9745138
1.56	-18.9124549	0.24410925	0.93562175	42.27091932	42.27091932	-31.32543867	-31.32543867	5.86777409	5.86777409	-17.65215813
1.57	-18.64110104	0.24682371	0.93768627	41.48783754	41.48783754	-30.77377565	-30.77377565	5.80869277	5.80869277	-17.32402148
1.58	-18.36863813	0.24954589	0.93972157	40.70542886	40.70542886	-30.22545544	-30.22545544	5.74995207	5.74995207	-16.99717285
1.59	-18.08898137	0.25228754	0.94173801	39.91211322	39.91211322	-29.67223912	-29.67223912	5.68796348	5.68796348	-16.67966584
1.6	-17.81023722	0.25502962	0.94373559	39.1210514	39.1210514	-29.12069065	-29.12069065	5.62330396	5.62330396	-16.3637405
1.61	-17.52444958	0.2577922	0.94570825	38.31895744	38.31895744	-28.56361264	-28.56361264	5.55332733	5.55332733	-16.05821883
1.62	-17.23801703	0.26055615	0.94765309	37.51809809	37.51809809	-28.00894341	-28.00894341	5.47938414	5.47938414	-15.75787006
1.63	-16.95007591	0.26332056	0.94956528	36.71750376	36.71750376	-27.45620446	-27.45620446	5.40233647	5.40233647	-15.46458173
1.64	-16.66143199	0.26607886	0.95143927	35.9191855	35.9191855	-26.90687142	-26.90687142	5.32398159	5.32398159	-15.17858767
1.65	-16.37259164	0.26882383	0.95326978	35.12488534	35.12488534	-26.36244629	-26.36244629	5.24607682	5.24607682	-14.90044771
1.66	-16.08387614	0.27154854	0.95505137	34.33622054	34.33622054	-25.82450783	-25.82450783	5.17010668	5.17010668	-14.63070096
1.67	-15.79525621	0.27424715	0.95677834	33.55460971	33.55460971	-25.29498089	-25.29498089	5.0972142	5.0972142	-14.37000684
1.68	-15.50555784	0.27691387	0.95845017	32.78000589	32.78000589	-24.77704238	-24.77704238	5.02739249	5.02739249	-14.12059854
1.69	-15.42740572	0.27940871	0.95960894	32.28150828	32.28150828	-24.33244245	-24.33244245	5.03274969	5.03274969	-13.61403234
1.7	-14.92833578	0.28214436	0.96160165	31.26101567	31.26101567	-23.77448909	-23.77448909	4.90942365	4.90942365	-13.64459845
1.71	-14.63529769	0.28468991	0.96309983	30.51257597	30.51257597	-23.29073025	-23.29073025	4.85217352	4.85217352	-13.42739673
1.72	-14.35555736	0.28724238	0.96451082	29.78464965	29.78464965	-22.82362658	-22.82362658	4.80756453	4.80756453	-13.19250408
1.73	-14.2987983	0.28959028	0.96541673	29.34224425	29.34224425	-22.41797627	-22.41797627	4.82807457	4.82807457	-12.68874752
1.74	-13.78330232	0.29220303	0.96721866	28.33540537	28.33540537	-21.90301576	-21.90301576	4.7227025	4.7227025	-12.76873812
1.75	-13.50950397	0.29464497	0.96849106	27.6355883	27.6355883	-21.45566584	-21.45566584	4.68927525	4.68927525	-12.54425532
1.76	-13.23998354	0.29705906	0.96971421	26.94290249	26.94290249	-21.01151121	-21.01151121	4.65348363	4.65348363	-12.32217148
1.77	-12.9677532	0.29943609	0.97092471	26.25148745	26.25148745	-20.56792964	-20.56792964	4.61019469	4.61019469	-12.11150778
1.78	-12.71730598	0.30179513	0.97204817	25.58108461	25.58108461	-20.12156907	-20.12156907	4.57748893	4.57748893	-11.87427991
1.79	-12.46982467	0.30411944	0.97314658	24.9171502	24.9171502	-19.67559667	-19.67559667	4.53877479	4.53877479	-11.64076277
1.8	-12.43713853	0.30626123	0.97376661	24.53493265	24.53493265	-19.30458199	-19.30458199	4.56377845	4.56377845	-11.14905651
1.81	-12.00239217	0.3086575	0.97520178	23.62480974	23.62480974	-18.78142834	-18.78142834	4.46544186	4.46544186	-11.15912715
1.82	-11.78216763	0.31085363	0.97614828	23.00258053	23.00258053	-18.34438148	-18.34438148	4.42380498	4.42380498	-10.91432345
1.83	-11.57134582	0.31299771	0.97704778	22.39458659	22.39458659	-17.90744339	-17.90744339	4.38505333	4.38505333	-10.6665311
1.84	-11.37256056	0.3150846	0.97789162	21.80650142	21.80650142	-17.47848389	-17.47848389	4.34627555	4.34627555	-10.41221731
1.85	-11.17124038	0.31712641	0.9787129	21.22234977	21.22234977	-17.0537388	-17.0537388	4.30753792	4.30753792	-10.17126157
1.86	-10.97769114	0.31911934	0.97948394	20.65174191	20.65174191	-16.63468772	-16.63468772	4.27569639	4.27569639	-9.92820468
1.87	-10.78595956	0.321067	0.98022359	20.08828996	20.08828996	-16.21996829	-16.21996829	4.23703042	4.23703042	-9.69062185
1.88	-10.64107395	0.32297362	0.98084104	19.57883668	19.57883668	-15.81054748	-15.81054748	4.22807166	4.22807166	-9.39414985
1.89	-10.39973923	0.32484495	0.98161624	18.9676176	18.9676176	-15.39611449	-15.39611449	4.17311925	4.17311925	-9.2388605
1.9	-10.32885393	0.32663726	0.98203303	18.56429994	18.56429994	-15.02460547	-15.02460547	4.18722828	4.18722828	-8.85913057
1.91	-10.01778338	0.32846131	0.98287706	17.86761273	17.86761273	-14.58526544	-14.58526544	4.12152046	4.12152046	-8.80892852
1.92	-9.81800327	0.33022652	0.98348274	17.30867672	17.30867672	-14.17501931	-14.17501931	4.08322477	4.08322477	-8.61182035
1.93	-9.62450817	0.33189902	0.98406389	16.76875289	16.76875289	-13.77486238	-13.77486238	4.04969386	4.04969386	-8.42371867
1.94	-9.42654247	0.33361056	0.98460542	16.22287922	16.22287922	-13.37983974	-13.37983974	4.02481715	4.02481715	-8.22607066
1.95	-9.40011284	0.33514247	0.98479188	15.90695624	15.90695624	-13.05224273	-13.05224273	4.05052166	4.05052166	-7.83434449
1.96	-9.04504765	0.33685417	0.98560494	15.15674385	15.15674385	-12.58727139	-12.58727139	3.97826181	3.97826181	-7.85171422
